<svg width="144" height="49" viewBox="0 0 144 49" fill="none" xmlns="http://www.w3.org/2000/svg">
<path d="M138.757 0.400024H143.721V48H138.757V0.400024ZM108.973 48H103.941V0.400024H108.973V48ZM139.233 26.036H108.429V21.616H139.233V26.036Z" fill="#333333"/>
<path d="M65.6664 48.4079C62.0851 48.4079 58.7531 47.8186 55.6704 46.6399C52.6331 45.4159 49.9811 43.7159 47.7144 41.5399C45.4931 39.3186 43.7477 36.7573 42.4784 33.8559C41.2544 30.9093 40.6424 27.6906 40.6424 24.1999C40.6424 20.7093 41.2544 17.5133 42.4784 14.6119C43.7477 11.6653 45.4931 9.10394 47.7144 6.92794C49.9811 4.70661 52.6331 3.00661 55.6704 1.82794C58.7077 0.603943 62.0397 -0.00805664 65.6664 -0.00805664C69.2477 -0.00805664 72.5571 0.603943 75.5944 1.82794C78.6317 3.00661 81.2611 4.68394 83.4824 6.85994C85.7491 9.03594 87.4944 11.5973 88.7184 14.5439C89.9877 17.4906 90.6224 20.7093 90.6224 24.1999C90.6224 27.6906 89.9877 30.9093 88.7184 33.8559C87.4944 36.8026 85.7491 39.3639 83.4824 41.5399C81.2611 43.7159 78.6317 45.4159 75.5944 46.6399C72.5571 47.8186 69.2477 48.4079 65.6664 48.4079ZM65.6664 43.9199C68.5224 43.9199 71.1517 43.4439 73.5544 42.4919C76.0024 41.4946 78.1104 40.1119 79.8784 38.3439C81.6917 36.5306 83.0971 34.4453 84.0944 32.0879C85.0917 29.6853 85.5904 27.0559 85.5904 24.1999C85.5904 21.3439 85.0917 18.7373 84.0944 16.3799C83.0971 13.9773 81.6917 11.8919 79.8784 10.1239C78.1104 8.31061 76.0024 6.92794 73.5544 5.97594C71.1517 4.97861 68.5224 4.47994 65.6664 4.47994C62.8104 4.47994 60.1584 4.97861 57.7104 5.97594C55.2624 6.92794 53.1317 8.31061 51.3184 10.1239C49.5504 11.8919 48.1451 13.9773 47.1024 16.3799C46.1051 18.7373 45.6064 21.3439 45.6064 24.1999C45.6064 27.0106 46.1051 29.6173 47.1024 32.0199C48.1451 34.4226 49.5504 36.5306 51.3184 38.3439C53.1317 40.1119 55.2624 41.4946 57.7104 42.4919C60.1584 43.4439 62.8104 43.9199 65.6664 43.9199Z" fill="#333333"/>
<path d="M13.852 48.408C11.1774 48.408 8.66136 47.8187 6.30403 46.64C3.99203 45.4614 2.13336 43.784 0.728027 41.608L3.65203 38.208C4.96669 40.112 6.48536 41.5627 8.20803 42.56C9.93069 43.5574 11.8347 44.056 13.92 44.056C19.8134 44.056 22.76 40.5654 22.76 33.584V4.75202H5.35203V0.400024H27.724V33.38C27.724 38.412 26.5454 42.1747 24.188 44.668C21.876 47.1614 18.4307 48.408 13.852 48.408Z" fill="#333333"/>
</svg>
